<?xml version="1.0" encoding="UTF-8"?>
<svg version="1.1" xmlns="http://www.w3.org/2000/svg" width="500" height="500">
<path d="M0 0 C3.01193615 -0.05097617 6.02299367 -0.08798775 9.03515625 -0.1171875 C9.87904907 -0.13289795 10.72294189 -0.1486084 11.59240723 -0.16479492 C20.46604082 -0.22914324 28.1098703 1.85908086 36 6 C36 6.66 36 7.32 36 8 C36.71800781 8.24105469 37.43601563 8.48210937 38.17578125 8.73046875 C41.40242381 10.1808959 43.56158911 11.94878294 46.1875 14.3125 C47.04730469 15.07175781 47.90710938 15.83101562 48.79296875 16.61328125 C51.023261 19.02515482 52.01632755 20.89511211 53 24 C53.66 24 54.32 24 55 24 C60.81579304 35.42387918 64 42.86375496 64 56 C136.27 56 208.54 56 283 56 C283 76.13 283 96.26 283 117 C247.69 117 212.38 117 176 117 C176.33 132.51 176.66 148.02 177 164 C177.02487036 190.5959124 177.02487036 190.5959124 176.96083069 199.05577087 C176.94733001 201.064686 176.93390045 203.0736016 176.92053413 205.08251762 C176.91358127 206.09204388 176.9066284 207.10157014 176.89946485 208.14168811 C176.86410425 213.48123779 176.83619624 218.82082748 176.80735779 224.16041565 C176.75215427 234.18514499 176.69065012 244.2098244 176.62663645 254.23450094 C176.55384997 265.68395387 176.48846178 277.13344576 176.42356598 288.5829457 C176.29036529 312.05534772 176.14829314 335.52768881 176 359 C173.3186164 359.06467545 170.63882605 359.1114932 167.95703125 359.1484375 C166.83270691 359.17828735 166.83270691 359.17828735 165.68566895 359.20874023 C156.81653563 359.30005074 149.81928446 355.97464816 142 352 C142 351.34 142 350.68 142 350 C141.34 349.814375 140.68 349.62875 140 349.4375 C135.73094732 347.39191226 132.25836294 344.42815357 129 341 C129 340.34 129 339.68 129 339 C128.34 339 127.68 339 127 339 C127 338.34 127 337.68 127 337 C126.34 337 125.68 337 125 337 C123.7109375 335.35546875 123.7109375 335.35546875 122.375 333.1875 C121.92898437 332.47980469 121.48296875 331.77210938 121.0234375 331.04296875 C120 329 120 329 120 326 C119.34 326 118.68 326 118 326 C117.36690809 324.81679424 116.74403282 323.62812152 116.125 322.4375 C115.77695313 321.77621094 115.42890625 321.11492187 115.0703125 320.43359375 C112.50255399 314.59522313 111.70933561 309.1164022 111.75949097 302.79322815 C111.75778212 301.99503802 111.75607327 301.19684789 111.75431263 300.37447017 C111.75103335 297.71512996 111.76199554 295.05604527 111.77294922 292.39672852 C111.77351367 290.48439032 111.77319611 288.57205169 111.77206421 286.65971375 C111.77149102 281.4784372 111.78323988 276.2972535 111.79721212 271.11599851 C111.80972511 265.69744924 111.81089043 260.27889779 111.81326294 254.8603363 C111.81947603 244.6040848 111.83588456 234.34787599 111.85596192 224.09164327 C111.87832622 212.41335361 111.88931569 200.73506189 111.89935279 189.05675614 C111.92025092 165.03780831 111.95692506 141.018919 112 117 C96.16 117 80.32 117 64 117 C64 178.38 64 239.76 64 303 C44.25970001 303 34.576493 301.6869935 20 290 C19.01 289.34 18.02 288.68 17 288 C17 287.34 17 286.68 17 286 C16.34 286 15.68 286 15 286 C13.34375 284.13671875 13.34375 284.13671875 11.5 281.6875 C10.8915625 280.88699219 10.283125 280.08648437 9.65625 279.26171875 C6.62644109 275.1243146 5.77174952 273.13563588 6 268 C5.34 268 4.68 268 4 268 C0.57682415 258.95303525 -0.29968574 249.74328861 -0.24050903 240.14826965 C-0.24221788 239.11389934 -0.24392673 238.07952902 -0.24568737 237.01381415 C-0.24895782 233.57920526 -0.23801906 230.1447957 -0.22705078 226.71020508 C-0.22648614 224.23570765 -0.22680426 221.76120988 -0.22793579 219.28671265 C-0.22838989 213.97538038 -0.22275059 208.66410909 -0.21146011 203.35279274 C-0.19514707 195.6737044 -0.18999119 187.99463977 -0.18748413 180.31553598 C-0.1831161 167.85414262 -0.16983129 155.39277557 -0.15087891 142.93139648 C-0.13249696 130.83243948 -0.11835181 118.73348965 -0.10986328 106.63452148 C-0.10933783 105.88767555 -0.10881239 105.14082962 -0.10827102 104.37135199 C-0.10566078 100.62432713 -0.1031334 96.87730222 -0.10064721 93.13027728 C-0.0799425 62.08683239 -0.0445918 31.04342021 0 0 Z M240 72 C238.64843325 73.65191491 237.31037934 75.31522656 236 77 C235.31292969 77.4021875 234.62585938 77.804375 233.91796875 78.21875 C231.68420401 79.92631359 231.68420401 79.92631359 231.50390625 83.109375 C231.64171036 91.67160354 231.74336208 97.25486639 237.5 103.875 C242.11368656 107.79663358 246.75175953 107.18322939 252.5 107.1875 C253.80130859 107.20586914 253.80130859 107.20586914 255.12890625 107.22460938 C255.96292969 107.22654297 256.79695313 107.22847656 257.65625 107.23046875 C258.79803711 107.23663208 258.79803711 107.23663208 259.96289062 107.24291992 C262.3122 107.1185105 262.3122 107.1185105 265 105 C265 104.34 265 103.68 265 103 C266.32 103 267.64 103 269 103 C272.40196336 97.73244382 273.49661454 93.03443413 273.9375 86.8125 C274.02342407 85.77899414 274.02342407 85.77899414 274.11108398 84.72460938 C274.39481344 79.20757349 272.99302949 76.41232805 269.5703125 72.26953125 C269.09335937 71.78871094 268.61640625 71.30789062 268.125 70.8125 C267.65320313 70.32394531 267.18140625 69.83539063 266.6953125 69.33203125 C257.67976311 62.2483853 247.02722488 63.64237817 240 72 Z " fill="#AD2930" transform="translate(102,87)"/>
<path d="M0 0 C20.79 0 41.58 0 63 0 C63 67.98 63 135.96 63 206 C62.34 206 61.68 206 61 206 C61.0825 207.258125 61.165 208.51625 61.25 209.8125 C61.15989459 221.34599192 54.89886217 229.36976315 48 238 C47.34 238.99 46.68 239.98 46 241 C45.34 241 44.68 241 44 241 C44 241.66 44 242.32 44 243 C43.34 243 42.68 243 42 243 C42 243.66 42 244.32 42 245 C29.71849241 256.21229399 16.3860034 258 0 258 C0 172.86 0 87.72 0 0 Z " fill="#A9282D" transform="translate(324,220)"/>
<path d="M0 0 C7.38674476 4.91990276 13.49926007 10.415194 15.84375 19.20703125 C16.18994132 23.62097062 16.22845408 27.97056578 16.09375 32.39453125 C16.073125 33.52890625 16.0525 34.66328125 16.03125 35.83203125 C13.80088622 44.30741362 8.79618214 50.70146771 1.40234375 55.2734375 C-6.5601097 59.14014501 -15.35528496 59.91298878 -23.93359375 57.56640625 C-27.5635323 56.13788418 -30.65598569 54.56137412 -33.90625 52.39453125 C-33.90625 51.73453125 -33.90625 51.07453125 -33.90625 50.39453125 C-34.525 50.16765625 -35.14375 49.94078125 -35.78125 49.70703125 C-38.52035209 48.0152329 -38.95649472 46.40208964 -39.90625 43.39453125 C-40.56625 43.39453125 -41.22625 43.39453125 -41.90625 43.39453125 C-44.0153346 38.18087411 -44.27254648 33.55497186 -44.28125 28.01953125 C-44.30574219 27.20742188 -44.33023438 26.3953125 -44.35546875 25.55859375 C-44.39089709 18.18949823 -41.92401792 13.42118313 -37.90625 7.39453125 C-37.24625 7.39453125 -36.58625 7.39453125 -35.90625 7.39453125 C-35.720625 6.81703125 -35.535 6.23953125 -35.34375 5.64453125 C-28.68136855 -4.78354406 -9.87099623 -5.21173868 0 0 Z " fill="#B3272D" transform="translate(145.90625,18.60546875)"/>
<path d="M0 0 C4.95 0 9.9 0 15 0 C15 0.66 15 1.32 15 2 C15.66644531 1.855625 16.33289063 1.71125 17.01953125 1.5625 C17.94121094 1.376875 18.86289062 1.19125 19.8125 1 C20.70582031 0.814375 21.59914063 0.62875 22.51953125 0.4375 C27.31085158 -0.16477596 32.17097455 0 37 0 C37 7.59 37 15.18 37 23 C36.01 23.33 35.02 23.66 34 24 C34.04125 25.11375 34.0825 26.2275 34.125 27.375 C34.09831352 32.36537113 33.69219148 37.27560754 32 42 C29.5 44.1875 29.5 44.1875 27 45 C26.01 44.505 26.01 44.505 25 44 C25.47695313 43.17628906 25.95390625 42.35257813 26.4453125 41.50390625 C28.17589734 37.60356805 28.65546324 34.13614063 28.875 29.9375 C28.96394531 28.89625977 28.96394531 28.89625977 29.0546875 27.83398438 C29.43150145 21.63421734 27.60369575 18.81470835 23.625 14.3125 C18.76973157 10.03523972 13.33281816 9.16575802 7.01171875 8.70703125 C1.85758302 9.20840632 -0.78691314 12.1723033 -4 16 C-5.33773782 17.66313351 -6.67267046 19.32854798 -8 21 C-8.99 21.33 -9.98 21.66 -11 22 C-10.43697042 18.05879291 -9.3208055 15.2491277 -7 12 C-6.34 12 -5.68 12 -5 12 C-4.67 10.68 -4.34 9.36 -4 8 C-3.34 8 -2.68 8 -2 8 C-2 6.68 -2 5.36 -2 4 C-1.34 4 -0.68 4 0 4 C0 2.68 0 1.36 0 0 Z " fill="#AB282E" transform="translate(346,144)"/>
<path d="M0 0 C1.84265722 1.21623512 3.27289598 2.55086129 4.76953125 4.16796875 C1.63603393 5.21246786 0.77984869 5.1022052 -2.23046875 4.16796875 C-2.72546875 2.18796875 -2.72546875 2.18796875 -3.23046875 0.16796875 C-9.83046875 0.16796875 -16.43046875 0.16796875 -23.23046875 0.16796875 C-23.23046875 0.82796875 -23.23046875 1.48796875 -23.23046875 2.16796875 C-24.55046875 2.16796875 -25.87046875 2.16796875 -27.23046875 2.16796875 C-27.56046875 3.48796875 -27.89046875 4.80796875 -28.23046875 6.16796875 C-30.21046875 6.49796875 -32.19046875 6.82796875 -34.23046875 7.16796875 C-34.23046875 8.15796875 -34.23046875 9.14796875 -34.23046875 10.16796875 C-34.89046875 10.16796875 -35.55046875 10.16796875 -36.23046875 10.16796875 C-37.86896495 14.20959271 -39.31645498 17.80170703 -39.546875 22.1796875 C-39.58876953 22.93701172 -39.63066406 23.69433594 -39.67382812 24.47460938 C-39.71314453 25.26029297 -39.75246094 26.04597656 -39.79296875 26.85546875 C-39.83615234 27.65275391 -39.87933594 28.45003906 -39.92382812 29.27148438 C-40.02974243 31.23678322 -40.13059426 33.20235371 -40.23046875 35.16796875 C-39.24046875 35.49796875 -38.25046875 35.82796875 -37.23046875 36.16796875 C-36.203125 38.09375 -36.203125 38.09375 -35.29296875 40.48046875 C-33.76710121 44.19792983 -32.19552799 46.41469945 -29.23046875 49.16796875 C-29.23046875 50.15796875 -29.23046875 51.14796875 -29.23046875 52.16796875 C-27.72806641 52.34972656 -27.72806641 52.34972656 -26.1953125 52.53515625 C-24.85282845 52.70414026 -23.51038252 52.87342733 -22.16796875 53.04296875 C-21.51119141 53.12160156 -20.85441406 53.20023438 -20.17773438 53.28125 C-15.69694955 53.85514362 -11.546957 54.83204651 -7.23046875 56.16796875 C-7.23046875 55.17796875 -7.23046875 54.18796875 -7.23046875 53.16796875 C-4.26046875 52.50796875 -1.29046875 51.84796875 1.76953125 51.16796875 C1.76953125 50.50796875 1.76953125 49.84796875 1.76953125 49.16796875 C3.08953125 49.16796875 4.40953125 49.16796875 5.76953125 49.16796875 C5.76953125 48.17796875 5.76953125 47.18796875 5.76953125 46.16796875 C6.75953125 46.16796875 7.74953125 46.16796875 8.76953125 46.16796875 C8.43953125 45.17796875 8.10953125 44.18796875 7.76953125 43.16796875 C8.75953125 43.49796875 9.74953125 43.82796875 10.76953125 44.16796875 C9.42260867 48.51553552 7.76953786 50.3270552 4.01953125 52.85546875 C3.1790625 53.43683594 2.33859375 54.01820312 1.47265625 54.6171875 C-5.80264621 58.79102432 -13.02467006 58.92459563 -21.23046875 58.16796875 C-26.05359545 56.84861022 -30.08034432 54.93471837 -34.23046875 52.16796875 C-34.23046875 51.50796875 -34.23046875 50.84796875 -34.23046875 50.16796875 C-34.84921875 49.94109375 -35.46796875 49.71421875 -36.10546875 49.48046875 C-38.84457084 47.7886704 -39.28071347 46.17552714 -40.23046875 43.16796875 C-40.89046875 43.16796875 -41.55046875 43.16796875 -42.23046875 43.16796875 C-44.33955335 37.95431161 -44.59676523 33.32840936 -44.60546875 27.79296875 C-44.62996094 26.98085938 -44.65445313 26.16875 -44.6796875 25.33203125 C-44.71511584 17.96293573 -42.24823667 13.19462063 -38.23046875 7.16796875 C-37.57046875 7.16796875 -36.91046875 7.16796875 -36.23046875 7.16796875 C-36.04484375 6.59046875 -35.85921875 6.01296875 -35.66796875 5.41796875 C-28.75618163 -5.40048065 -10.12873954 -5.05468646 0 0 Z " fill="#A1393E" transform="translate(146.23046875,18.83203125)"/>
<path d="M0 0 C72.27 0 144.54 0 219 0 C219 19.8 219 39.6 219 60 C214.05 60 209.1 60 204 60 C204 59.67 204 59.34 204 59 C205.7699868 58.80467039 207.54104279 58.61901118 209.3125 58.4375 C210.79169922 58.28087891 210.79169922 58.28087891 212.30078125 58.12109375 C215 58 215 58 218 59 C218 39.86 218 20.72 218 1 C208.595 1.99 208.595 1.99 199 3 C198.01 3 197.02 3 196 3 C196 2.34 196 1.68 196 1 C131.32 1 66.64 1 0 1 C0 0.67 0 0.34 0 0 Z " fill="#982E31" transform="translate(165,143)"/>
<path d="M0 0 C0.33 0 0.66 0 1 0 C1 81.84 1 163.68 1 248 C1.66 248 2.32 248 3 248 C3 252.62 3 257.24 3 262 C2.67 262 2.34 262 2 262 C0.44001266 254.63812027 -0.28686984 247.66529467 -0.24050903 240.14826965 C-0.24221788 239.11389934 -0.24392673 238.07952902 -0.24568737 237.01381415 C-0.24895782 233.57920526 -0.23801906 230.1447957 -0.22705078 226.71020508 C-0.22648614 224.23570765 -0.22680426 221.76120988 -0.22793579 219.28671265 C-0.22838989 213.97538038 -0.22275059 208.66410909 -0.21146011 203.35279274 C-0.19514707 195.6737044 -0.18999119 187.99463977 -0.18748413 180.31553598 C-0.1831161 167.85414262 -0.16983129 155.39277557 -0.15087891 142.93139648 C-0.13249696 130.83243948 -0.11835181 118.73348965 -0.10986328 106.63452148 C-0.10933783 105.88767555 -0.10881239 105.14082962 -0.10827102 104.37135199 C-0.10566078 100.62432713 -0.1031334 96.87730222 -0.10064721 93.13027728 C-0.0799425 62.08683239 -0.0445918 31.04342021 0 0 Z " fill="#BC6A6F" transform="translate(102,87)"/>
<path d="M0 0 C0.33 0 0.66 0 1 0 C1.33 63.36 1.66 126.72 2 192 C2.66 192 3.32 192 4 192 C5.58177926 196.15217057 6.40478458 199.54736965 6 204 C5.01 204.99 5.01 204.99 4 206 C-0.57589858 195.60731667 -0.54658303 185.93975012 -0.45410156 174.82910156 C-0.45297139 172.91602604 -0.45361026 171.00294879 -0.45587158 169.08987427 C-0.45701303 163.92943792 -0.43359639 158.76937813 -0.40557575 153.60902882 C-0.38046666 148.20387017 -0.37821263 142.79870163 -0.37347412 137.39349365 C-0.3610722 127.17276243 -0.32828838 116.9522036 -0.28807616 106.73154807 C-0.24327163 95.08943586 -0.22134961 83.44731516 -0.20129442 71.80513811 C-0.1595532 47.86999673 -0.08925549 23.93500805 0 0 Z " fill="#B65D62" transform="translate(214,204)"/>
<path d="M0 0 C4.62 0 9.24 0 14 0 C13.67 0.66 13.34 1.32 13 2 C12.06027344 1.98259766 12.06027344 1.98259766 11.1015625 1.96484375 C9.87566406 1.95130859 9.87566406 1.95130859 8.625 1.9375 C7.40683594 1.92009766 7.40683594 1.92009766 6.1640625 1.90234375 C3.95062858 1.85533666 3.95062858 1.85533666 2 3 C1.67 3.99 1.34 4.98 1 6 C2.18078125 5.97679687 3.3615625 5.95359375 4.578125 5.9296875 C6.13541033 5.91092503 7.69270252 5.89272534 9.25 5.875 C10.02730469 5.85824219 10.80460937 5.84148437 11.60546875 5.82421875 C18.96292928 5.76133447 18.96292928 5.76133447 22 8 C22.495 8.99 22.495 8.99 23 10 C23.99 10 24.98 10 26 10 C29.8674776 13.90016051 31.32794459 18.07894883 31.3125 23.5 C31.23335319 25.00152805 31.13806703 26.50273977 31 28 C30.67 28 30.34 28 30 28 C29.93683594 27.43152344 29.87367188 26.86304688 29.80859375 26.27734375 C28.89615446 20.52417392 27.15735559 17.41025037 22.94921875 13.41015625 C17.47684707 9.45118596 10.62717282 8.35533338 4 9 C-1.15249748 11.82180395 -4.40351099 16.47108791 -8 21 C-8.99 21.33 -9.98 21.66 -11 22 C-10.43697042 18.05879291 -9.3208055 15.2491277 -7 12 C-6.34 12 -5.68 12 -5 12 C-4.67 10.68 -4.34 9.36 -4 8 C-3.34 8 -2.68 8 -2 8 C-2 6.68 -2 5.36 -2 4 C-1.34 4 -0.68 4 0 4 C0 2.68 0 1.36 0 0 Z " fill="#A13439" transform="translate(346,144)"/>
<path d="M0 0 C0.33 0 0.66 0 1 0 C1 21.12 1 42.24 1 64 C1.66 64 2.32 64 3 64 C3 68.95 3 73.9 3 79 C1.68 79 0.36 79 -1 79 C-1.02312392 68.84733849 -1.04091534 58.6946832 -1.05181217 48.54200077 C-1.05704089 43.82820267 -1.06413834 39.11442253 -1.07543945 34.40063477 C-1.08626873 29.85544596 -1.09227692 25.31027448 -1.09487724 20.76507378 C-1.09673142 19.02705042 -1.10035189 17.28902806 -1.10573006 15.55101204 C-1.11294103 13.12521405 -1.11399092 10.69948854 -1.11352539 8.27368164 C-1.11712067 7.54791931 -1.12071594 6.82215698 -1.12442017 6.07440186 C-1.11405216 1.11405216 -1.11405216 1.11405216 0 0 Z " fill="#B62429" transform="translate(105,112)"/>
<path d="M0 0 C1.84265722 1.21623512 3.27289598 2.55086129 4.76953125 4.16796875 C1.63603393 5.21246786 0.77984869 5.1022052 -2.23046875 4.16796875 C-2.72546875 2.18796875 -2.72546875 2.18796875 -3.23046875 0.16796875 C-9.83046875 0.16796875 -16.43046875 0.16796875 -23.23046875 0.16796875 C-23.23046875 0.82796875 -23.23046875 1.48796875 -23.23046875 2.16796875 C-24.55046875 2.16796875 -25.87046875 2.16796875 -27.23046875 2.16796875 C-27.56046875 3.48796875 -27.89046875 4.80796875 -28.23046875 6.16796875 C-30.21046875 6.49796875 -32.19046875 6.82796875 -34.23046875 7.16796875 C-34.23046875 8.15796875 -34.23046875 9.14796875 -34.23046875 10.16796875 C-34.89046875 10.16796875 -35.55046875 10.16796875 -36.23046875 10.16796875 C-36.89046875 11.81796875 -37.55046875 13.46796875 -38.23046875 15.16796875 C-39.55046875 14.50796875 -40.87046875 13.84796875 -42.23046875 13.16796875 C-40.95650985 11.12963451 -39.61984952 9.12944749 -38.23046875 7.16796875 C-37.57046875 7.16796875 -36.91046875 7.16796875 -36.23046875 7.16796875 C-36.04484375 6.59046875 -35.85921875 6.01296875 -35.66796875 5.41796875 C-28.75618163 -5.40048065 -10.12873954 -5.05468646 0 0 Z " fill="#B26167" transform="translate(146.23046875,18.83203125)"/>
<path d="M0 0 C0.99 0.33 1.98 0.66 3 1 C1.65307742 5.34756677 0.00000661 7.15908645 -3.75 9.6875 C-4.59046875 10.26886719 -5.4309375 10.85023437 -6.296875 11.44921875 C-14.23284387 16.00207951 -23.27469516 16.3356638 -32.09765625 14.27734375 C-36.9645026 12.54768756 -36.9645026 12.54768756 -39 11 C-39.76171875 8.35546875 -39.76171875 8.35546875 -40 6 C-39.01 6 -38.02 6 -37 6 C-37 6.99 -37 7.98 -37 9 C-35.99839844 9.12117188 -34.99679688 9.24234375 -33.96484375 9.3671875 C-32.6223597 9.53617151 -31.27991377 9.70545858 -29.9375 9.875 C-29.28072266 9.95363281 -28.62394531 10.03226563 -27.94726562 10.11328125 C-23.4664808 10.68717487 -19.31648825 11.66407776 -15 13 C-15 12.01 -15 11.02 -15 10 C-12.03 9.34 -9.06 8.68 -6 8 C-6 7.34 -6 6.68 -6 6 C-4.68 6 -3.36 6 -2 6 C-2 5.01 -2 4.02 -2 3 C-1.01 3 -0.02 3 1 3 C0.505 1.515 0.505 1.515 0 0 Z " fill="#B6575E" transform="translate(154,62)"/>
<path d="M0 0 C0.33 0 0.66 0 1 0 C1 33.33 1 66.66 1 101 C1.66 101 2.32 101 3 101 C3 105.62 3 110.24 3 115 C2.67 115 2.34 115 2 115 C0.44348012 107.65543122 -0.28485345 100.703878 -0.22705078 93.2043457 C-0.22734283 92.18836807 -0.22763489 91.17239044 -0.22793579 90.12562561 C-0.22655626 86.80892013 -0.21106057 83.49244688 -0.1953125 80.17578125 C-0.19157747 77.85979841 -0.18873281 75.54381397 -0.18673706 73.22782898 C-0.17913922 67.16325436 -0.15952411 61.09877714 -0.1373291 55.03424072 C-0.11678738 48.83338742 -0.10771761 42.63251822 -0.09765625 36.43164062 C-0.07627432 24.28771787 -0.0421853 12.14386707 0 0 Z " fill="#B5595F" transform="translate(102,234)"/>
<path d="M0 0 C0.33 0.66 0.66 1.32 1 2 C5.70548581 3.46226252 10.74241688 3.22040859 15.625 3.25 C16.48351562 3.270625 17.34203125 3.29125 18.2265625 3.3125 C19.0515625 3.31765625 19.8765625 3.3228125 20.7265625 3.328125 C21.47502441 3.3374707 22.22348633 3.34681641 22.99462891 3.35644531 C25.52671625 2.90637866 26.2553285 1.81724119 28 0 C28.99 0 29.98 0 31 0 C31 1.65 31 3.3 31 5 C30.34 5 29.68 5 29 5 C29 5.66 29 6.32 29 7 C25.98509443 8.00496852 23.95818308 8.10335303 20.8125 8.0625 C19.91144531 8.05347656 19.01039063 8.04445312 18.08203125 8.03515625 C17.39496094 8.02355469 16.70789063 8.01195312 16 8 C16 7.34 16 6.68 16 6 C13.06556598 6.26656572 13.06556598 6.26656572 10 7 C9.01 8.485 9.01 8.485 8 10 C4.125 7.25 4.125 7.25 3 5 C2.01 4.67 1.02 4.34 0 4 C0 2.68 0 1.36 0 0 Z " fill="#C25A5F" transform="translate(339,190)"/>
<path d="M0 0 C0.12375 0.598125 0.2475 1.19625 0.375 1.8125 C1.30745533 5.07609366 3.21196309 6.20769056 6 8 C6.99 7.67 7.98 7.34 9 7 C9 7.99 9 8.98 9 10 C10.98 10 12.96 10 15 10 C15.33 10.99 15.66 11.98 16 13 C16.66 13.33 17.32 13.66 18 14 C18 14.66 18 15.32 18 16 C18.66 16.33 19.32 16.66 20 17 C14.65155992 16.46515599 10.64203897 14.53309233 6 12 C6 11.34 6 10.68 6 10 C5.34 9.814375 4.68 9.62875 4 9.4375 C-0.31339218 7.37066625 -3.51456519 4.23462189 -7 1 C-3.375 -1.125 -3.375 -1.125 0 0 Z " fill="#BA686C" transform="translate(238,427)"/>
<path d="M0 0 C6.0291702 5.7032691 8.77132913 9.99490411 9.08984375 18.359375 C9.18774794 25.53901536 9.24316201 31.91198494 5 38 C4.4375 36.0625 4.4375 36.0625 4 34 C4.495 33.505 4.495 33.505 5 33 C6.46813153 25.00683945 7.66603686 14.13629166 3 7 C2.34 6.67 1.68 6.34 1 6 C1 6.99 1 7.98 1 9 C0.34 9 -0.32 9 -1 9 C-0.67 6.03 -0.34 3.06 0 0 Z " fill="#B7545B" transform="translate(153,25)"/>
<path d="M0 0 C0.33 1.32 0.66 2.64 1 4 C3.31 4.33 5.62 4.66 8 5 C8.18175781 5.93972656 8.18175781 5.93972656 8.3671875 6.8984375 C8.53476563 7.71570313 8.70234375 8.53296875 8.875 9.375 C9.11863281 10.59316406 9.11863281 10.59316406 9.3671875 11.8359375 C9.86658932 14.18673923 9.86658932 14.18673923 12 16 C12.99 16 13.98 16 15 16 C14.67 17.65 14.34 19.3 14 21 C13.01 20.67 12.02 20.34 11 20 C11 19.34 11 18.68 11 18 C10.34 18 9.68 18 9 18 C7.34375 16.13671875 7.34375 16.13671875 5.5 13.6875 C4.8915625 12.88699219 4.283125 12.08648437 3.65625 11.26171875 C0.62644109 7.1243146 -0.22825048 5.13563588 0 0 Z " fill="#B23A41" transform="translate(108,355)"/>
<path d="M0 0 C2.99332739 0.9977758 3.94766315 1.7522025 6 4 C6.66 3.01 7.32 2.02 8 1 C11.125 0.8125 11.125 0.8125 14 1 C14 1.66 14 2.32 14 3 C16.31 3 18.62 3 21 3 C21 3.33 21 3.66 21 4 C13.25 4.125 13.25 4.125 11 3 C11 3.99 11 4.98 11 6 C7.68929162 7.00109515 4.69915231 7.10356134 1.25 7.0625 C0.26515625 7.05347656 -0.7196875 7.04445312 -1.734375 7.03515625 C-2.48203125 7.02355469 -3.2296875 7.01195312 -4 7 C-4 4 -4 4 -2 1.8125 C-1.34 1.214375 -0.68 0.61625 0 0 Z " fill="#B92A31" transform="translate(341,195)"/>
<path d="M0 0 C0.680625 0.00644531 1.36125 0.01289063 2.0625 0.01953125 C4 0.1875 4 0.1875 7 1.1875 C7.33 1.8475 7.66 2.5075 8 3.1875 C8.99 3.1875 9.98 3.1875 11 3.1875 C14.8674776 7.08766051 16.32794459 11.26644883 16.3125 16.6875 C16.23335319 18.18902805 16.13806703 19.69023977 16 21.1875 C15.67 21.1875 15.34 21.1875 15 21.1875 C14.93683594 20.61902344 14.87367188 20.05054688 14.80859375 19.46484375 C13.75694502 12.83392175 11.31085316 9.25760799 6 5.1875 C1.9156651 2.88351621 -2.3933602 2.65597184 -7 2.1875 C-3.97455666 0.17053778 -3.38932618 -0.07061096 0 0 Z " fill="#AE5C63" transform="translate(361,150.8125)"/>
<path d="M0 0 C8.37774847 -0.42901699 15.78265694 -0.76376507 23 4 C24.0296265 4.96946855 25.03940919 5.96208609 26 7 C22.86650268 8.04449911 22.01031744 7.93423645 19 7 C18.67 5.68 18.34 4.36 18 3 C11.73 3 5.46 3 -1 3 C-0.67 2.01 -0.34 1.02 0 0 Z " fill="#BD676D" transform="translate(125,16)"/>
<path d="M0 0 C0.33 0 0.66 0 1 0 C1.03738281 0.92941406 1.07476562 1.85882813 1.11328125 2.81640625 C1.47342712 9.58856089 1.91088757 14.95608437 5 21 C5 21.99 5 22.98 5 24 C4.67 23.34 4.34 22.68 4 22 C3.360625 21.87625 2.72125 21.7525 2.0625 21.625 C0 21 0 21 -1.11328125 19.33203125 C-2.20647734 16.4569737 -2.26549593 14.13456862 -2.25 11.0625 C-2.25515625 10.04285156 -2.2603125 9.02320313 -2.265625 7.97265625 C-1.99523535 4.94667796 -1.27241136 2.74174353 0 0 Z " fill="#C1646B" transform="translate(333,167)"/>
<path d="M0 0 C0.99 0.33 1.98 0.66 3 1 C1.65618891 5.88592184 -0.39148965 9.20598268 -3.5 13.1875 C-6.85607617 17.51719894 -6.85607617 17.51719894 -10 22 C-10.66 22 -11.32 22 -12 22 C-12 22.66 -12 23.32 -12 24 C-12.66 24 -13.32 24 -14 24 C-14 24.66 -14 25.32 -14 26 C-14.66 25.67 -15.32 25.34 -16 25 C-15.34 23.68 -14.68 22.36 -14 21 C-13.01 21 -12.02 21 -11 21 C-10.67 19.02 -10.34 17.04 -10 15 C-9.01 15.33 -8.02 15.66 -7 16 C-6.896875 15.071875 -6.79375 14.14375 -6.6875 13.1875 C-5.99468505 9.97535795 -5.6120831 8.88069983 -3 7 C-2.34 7 -1.68 7 -1 7 C-1.020625 6.030625 -1.04125 5.06125 -1.0625 4.0625 C-1 1 -1 1 0 0 Z " fill="#B76367" transform="translate(380,439)"/>
<path d="M0 0 C5.71993685 7.01773765 6.50458114 15.21655049 6 24 C4.68 23.67 3.36 23.34 2 23 C1.93941406 21.75863281 1.87882813 20.51726562 1.81640625 19.23828125 C1.73196377 17.59634423 1.64731764 15.95441768 1.5625 14.3125 C1.52318359 13.49587891 1.48386719 12.67925781 1.44335938 11.83789062 C1.23101997 7.80344189 0.95552078 3.94252691 0 0 Z " fill="#AC6166" transform="translate(160,119)"/>
<path d="M0 0 C0.33 0 0.66 0 1 0 C1 5.94 1 11.88 1 18 C1.66 18 2.32 18 3 18 C3 19.98 3 21.96 3 24 C3.66 24 4.32 24 5 24 C5 24.66 5 25.32 5 26 C5.598125 26.226875 6.19625 26.45375 6.8125 26.6875 C9.56351888 28.33811133 10.52484637 30.1972081 12 33 C11.01 33.495 11.01 33.495 10 34 C10 33.34 10 32.68 10 32 C9.38125 31.773125 8.7625 31.54625 8.125 31.3125 C5.38589791 29.62070165 4.94975528 28.00755839 4 25 C3.34 25 2.68 25 2 25 C-0.24105897 19.61792923 -0.23693988 14.84254456 -0.125 9.125 C-0.11597656 8.24585938 -0.10695313 7.36671875 -0.09765625 6.4609375 C-0.07424577 4.3071729 -0.0383801 2.15354986 0 0 Z " fill="#B67B82" transform="translate(102,37)"/>
<path d="M0 0 C1.98 0 3.96 0 6 0 C2.49102731 4.18423892 -1.08060535 8.19588166 -5 12 C-5.75 10.375 -5.75 10.375 -6 8 C-4.1875 4.75 -4.1875 4.75 -2 2 C-1.34 2 -0.68 2 0 2 C0 1.34 0 0.68 0 0 Z " fill="#EAC3C5" transform="translate(341,154)"/>
<path d="M0 0 C0.99 0.495 0.99 0.495 2 1 C2 1.66 2 2.32 2 3 C2.66 3 3.32 3 4 3 C5.58177926 7.15217057 6.40478458 10.54736965 6 15 C5.34 15.66 4.68 16.32 4 17 C3.32389577 15.10751181 2.65949561 13.2108398 2 11.3125 C1.62875 10.25675781 1.2575 9.20101563 0.875 8.11328125 C0.0608143 5.21637944 -0.17709796 2.98299377 0 0 Z " fill="#CE8284" transform="translate(214,393)"/>
<path d="M0 0 C1.2065625 0.0309375 1.2065625 0.0309375 2.4375 0.0625 C2.18188677 2.4056213 1.84479228 4.74093403 1.4375 7.0625 C0.4475 7.5575 0.4475 7.5575 -0.5625 8.0625 C-1.28943904 10.04138961 -1.96066251 12.04204558 -2.5625 14.0625 C-3.41630428 11.10128992 -3.69767764 8.4537356 -3.6875 5.375 C-3.69007813 4.58738281 -3.69265625 3.79976562 -3.6953125 2.98828125 C-3.48841492 -0.0117336 -3.02564324 0.07379618 0 0 Z " fill="#992E34" transform="translate(333.5625,159.9375)"/>
<path d="M0 0 C0.99 0 1.98 0 3 0 C2.71840367 2.93878727 2.42518615 5.87560413 2.125 8.8125 C2.04636719 9.64587891 1.96773438 10.47925781 1.88671875 11.33789062 C1.80292969 12.14033203 1.71914062 12.94277344 1.6328125 13.76953125 C1.55949707 14.50792236 1.48618164 15.24631348 1.41064453 16.00708008 C1 18 1 18 -1 21 C-1.02895976 17.87501937 -1.04678483 14.7500731 -1.0625 11.625 C-1.07087891 10.73554687 -1.07925781 9.84609375 -1.08789062 8.9296875 C-1.09111328 8.07890625 -1.09433594 7.228125 -1.09765625 6.3515625 C-1.10289307 5.56604004 -1.10812988 4.78051758 -1.11352539 3.97119141 C-1 2 -1 2 0 0 Z " fill="#9F424B" transform="translate(104,33)"/>
<path d="M0 0 C0.66 0 1.32 0 2 0 C2 0.99 2 1.98 2 3 C3.98 3 5.96 3 8 3 C8.33 3.99 8.66 4.98 9 6 C9.66 6.33 10.32 6.66 11 7 C11 7.66 11 8.32 11 9 C11.66 9.33 12.32 9.66 13 10 C9.28111761 9.49287967 6.26545761 8.88391785 3 7 C3 6.01 3 5.02 3 4 C2.01 3.67 1.02 3.34 0 3 C0 2.01 0 1.02 0 0 Z " fill="#BC6167" transform="translate(245,434)"/>
<path d="M0 0 C0.66 0 1.32 0 2 0 C0.75433186 3.73700442 -0.4178166 4.16315237 -3.75 6.125 C-4.61109375 6.64320313 -5.4721875 7.16140625 -6.359375 7.6953125 C-8.95070584 8.9756446 -11.15384048 9.58024266 -14 10 C-14 9.34 -14 8.68 -14 8 C-13.34 8 -12.68 8 -12 8 C-12 7.34 -12 6.68 -12 6 C-10.68 6 -9.36 6 -8 6 C-8 5.34 -8 4.68 -8 4 C-7.01 4 -6.02 4 -5 4 C-5 3.34 -5 2.68 -5 2 C-3.35 2 -1.7 2 0 2 C0 1.34 0 0.68 0 0 Z " fill="#B05F62" transform="translate(361,465)"/>
<path d="M0 0 C0.66 0 1.32 0 2 0 C1.6875 2.8125 1.6875 2.8125 1 6 C0.505 6.391875 0.01 6.78375 -0.5 7.1875 C-2.91603342 10.10687372 -2.57634628 13.55118548 -2.6875 17.1875 C-2.72166016 17.93708984 -2.75582031 18.68667969 -2.79101562 19.45898438 C-2.87334294 21.30546838 -2.93835281 23.15270994 -3 25 C-3.33 25 -3.66 25 -4 25 C-4.738041 6.95899772 -4.738041 6.95899772 0 0 Z " fill="#A83035" transform="translate(110,29)"/>
<path d="M0 0 C0.33 0 0.66 0 1 0 C1 4.95 1 9.9 1 15 C1.66 15 2.32 15 3 15 C3 19.62 3 24.24 3 29 C2.67 29 2.34 29 2 29 C-0.38222795 19.34346884 -0.19538118 9.86674975 0 0 Z " fill="#BA6B70" transform="translate(102,320)"/>
<path d="M0 0 C0.33 0 0.66 0 1 0 C1.66 4.29 2.32 8.58 3 13 C0.525 14.485 0.525 14.485 -2 16 C-2.66 15.67 -3.32 15.34 -4 15 C-3.525625 14.195625 -3.05125 13.39125 -2.5625 12.5625 C-0.70640382 8.33060071 -0.29440022 4.56827922 0 0 Z " fill="#B55F66" transform="translate(375,173)"/>
<path d="M0 0 C5.32697239 1.45281065 8.36402802 5.08111378 12 9 C11.67 9.66 11.34 10.32 11 11 C9.35 10.67 7.7 10.34 6 10 C5.7525 9.05125 5.505 8.1025 5.25 7.125 C4.3142923 3.91306809 4.3142923 3.91306809 1.875 2.625 C1.25625 2.41875 0.6375 2.2125 0 2 C0 1.34 0 0.68 0 0 Z " fill="#BB646A" transform="translate(141,97)"/>
<path d="M0 0 C0.66 0 1.32 0 2 0 C2.05402274 2.10388569 2.09280256 4.20816714 2.125 6.3125 C2.14820313 7.48425781 2.17140625 8.65601563 2.1953125 9.86328125 C2 13 2 13 0 16 C-0.1958009 14.08416353 -0.38132214 12.16727461 -0.5625 10.25 C-0.66691406 9.18265625 -0.77132813 8.1153125 -0.87890625 7.015625 C-0.98560074 4.35858796 -0.81930395 2.50039428 0 0 Z " fill="#AE3C45" transform="translate(377,168)"/>
<path d="M0 0 C0.66 0.33 1.32 0.66 2 1 C2 1.99 2 2.98 2 4 C6.455 4.99 6.455 4.99 11 6 C10.67 6.99 10.34 7.98 10 9 C2.65060241 7.43373494 2.65060241 7.43373494 -0.0625 5.625 C-1 4 -1 4 -0.6875 1.8125 C-0.460625 1.214375 -0.23375 0.61625 0 0 Z " fill="#B7686F" transform="translate(115,67)"/>
<path d="M0 0 C2 2 2 2 2 5 C4.94729537 6.15811388 4.94729537 6.15811388 8 6 C7.67 7.65 7.34 9.3 7 11 C6.01 10.67 5.02 10.34 4 10 C4 9.34 4 8.68 4 8 C3.34 8 2.68 8 2 8 C0.61061923 6.03852126 -0.7260411 4.03833424 -2 2 C-1.34 2 -0.68 2 0 2 C0 1.34 0 0.68 0 0 Z " fill="#C0666C" transform="translate(115,365)"/>
<path d="M0 0 C0.33 0.66 0.66 1.32 1 2 C3.86926731 3.63958132 6.92415918 4.80383968 10 6 C9.34 7.32 8.68 8.64 8 10 C4.125 7.25 4.125 7.25 3 5 C2.01 4.67 1.02 4.34 0 4 C0 2.68 0 1.36 0 0 Z " fill="#BA4449" transform="translate(339,190)"/>
<path d="M0 0 C0.33 0.66 0.66 1.32 1 2 C1.66 2 2.32 2 3 2 C6 7.75 6 7.75 6 10 C3.54896452 9.01958581 2.23241214 8.3486182 0.75 6.125 C0 4 0 4 0 0 Z " fill="#B27175" transform="translate(154,109)"/>
<path d="M0 0 C0.99 0.33 1.98 0.66 3 1 C4.1875 3.5625 4.1875 3.5625 5 6 C2.69 6.66 0.38 7.32 -2 8 C-1.34 5.36 -0.68 2.72 0 0 Z " fill="#C02936" transform="translate(154,31)"/>
<path d="M0 0 C2.97 0.495 2.97 0.495 6 1 C6 1.66 6 2.32 6 3 C7.65 3.33 9.3 3.66 11 4 C10.01 4.495 10.01 4.495 9 5 C8.67 5.66 8.34 6.32 8 7 C6.66382648 6.02471263 5.3311249 5.04466681 4 4.0625 C3.2575 3.51722656 2.515 2.97195313 1.75 2.41015625 C1.1725 1.94480469 0.595 1.47945313 0 1 C0 0.67 0 0.34 0 0 Z " fill="#B65C62" transform="translate(122,376)"/>
<path d="M0 0 C0.33 1.32 0.66 2.64 1 4 C1.66 4 2.32 4 3 4 C3 4.99 3 5.98 3 7 C3.99 7.33 4.98 7.66 6 8 C5.67 9.32 5.34 10.64 5 12 C1.98642026 9.12340116 0.04541243 7.15801695 -0.125 2.8125 C-0.08375 1.884375 -0.0425 0.95625 0 0 Z " fill="#BC6C70" transform="translate(108,355)"/>
<path d="M0 0 C-2 3 -2 3 -4.1640625 3.51171875 C-4.97617188 3.56972656 -5.78828125 3.62773437 -6.625 3.6875 C-7.85089844 3.78611328 -7.85089844 3.78611328 -9.1015625 3.88671875 C-9.72804688 3.92410156 -10.35453125 3.96148438 -11 4 C-8.12680193 0.87807733 -4.22911043 -2.11455521 0 0 Z " fill="#C6777F" transform="translate(125,18)"/>
<path d="M0 0 C0.99 0.33 1.98 0.66 3 1 C3.70491267 3.32206525 4.37212429 5.65593068 5 8 C5.66 8.33 6.32 8.66 7 9 C7 9.66 7 10.32 7 11 C6.34 11 5.68 11 5 11 C3.7109375 9.35546875 3.7109375 9.35546875 2.375 7.1875 C1.92898437 6.47980469 1.48296875 5.77210938 1.0234375 5.04296875 C0 3 0 3 0 0 Z " fill="#C37B7C" transform="translate(222,413)"/>
<path d="M0 0 C1.42020201 0.22906484 2.83845901 0.47251758 4.25 0.75 C-0.50890529 3.12945265 -3.29838765 3.85095578 -8.75 3.75 C-6.12072175 -0.02244271 -4.38091087 -0.51743042 0 0 Z " fill="#B5585D" transform="translate(342.75,474.25)"/>
<path d="M0 0 C0 1.65 0 3.3 0 5 C-3 6 -3 6 -6 5 C-6 3 -6 3 -4.6875 1.375 C-3 0 -3 0 0 0 Z " fill="#B9545B" transform="translate(370,190)"/>
<path d="M0 0 C4.875 1.875 4.875 1.875 6 3 C6.07205511 4.68608966 6.08386068 6.37500659 6.0625 8.0625 C6.05347656 8.98160156 6.04445313 9.90070313 6.03515625 10.84765625 C6.02355469 11.55792969 6.01195312 12.26820313 6 13 C5.67 13 5.34 13 5 13 C4.89042969 12.39671875 4.78085937 11.7934375 4.66796875 11.171875 C3.49202872 5.06315013 3.49202872 5.06315013 0 0 Z " fill="#BA6169" transform="translate(371,159)"/>
<path d="M0 0 C3.62107449 4.44404597 5.33060893 8.21434368 5 14 C1.54499217 11.33022122 0.94383648 8.13835997 0 4 C0 2.68 0 1.36 0 0 Z " fill="#B58689" transform="translate(160,119)"/>
<path d="M0 0 C2.125 0.375 2.125 0.375 4 1 C3.67 1.99 3.34 2.98 3 4 C1.68 4 0.36 4 -1 4 C-1 4.66 -1 5.32 -1 6 C-1.66 6 -2.32 6 -3 6 C-2.42655063 3.13275314 -2.1385485 2.1385485 0 0 Z " fill="#BD373D" transform="translate(149,64)"/>
<path d="M0 0 C0.91007812 0.00902344 1.82015625 0.01804688 2.7578125 0.02734375 C3.45648438 0.03894531 4.15515625 0.05054688 4.875 0.0625 C1.52665606 1.83088944 -1.31830655 2.73148318 -5.125 3.0625 C-5.785 2.4025 -6.445 1.7425 -7.125 1.0625 C-4.60024538 -0.19987731 -2.81299534 -0.03606404 0 0 Z " fill="#B86A6E" transform="translate(349.125,150.9375)"/>
<path d="M0 0 C1.485 0.99 1.485 0.99 3 2 C3 2.66 3 3.32 3 4 C3.99 4.33 4.98 4.66 6 5 C6.66 5.33 7.32 5.66 8 6 C7.67 6.66 7.34 7.32 7 8 C6.01 7.67 5.02 7.34 4 7 C4 6.34 4 5.68 4 5 C1.525 4.01 1.525 4.01 -1 3 C-0.67 2.01 -0.34 1.02 0 0 Z " fill="#BA7075" transform="translate(240,432)"/>
<path d="M0 0 C3.26954202 0.56371414 4.82575883 1.49962266 7 4 C6.34 5.32 5.68 6.64 5 8 C1.125 2.25 1.125 2.25 0 0 Z " fill="#A4424A" transform="translate(109,63)"/>
<path d="M0 0 C-0.33 1.65 -0.66 3.3 -1 5 C-3.475 4.01 -3.475 4.01 -6 3 C-3.375 0 -3.375 0 0 0 Z " fill="#AD4147" transform="translate(384,435)"/>
<path d="M0 0 C0.99 0.33 1.98 0.66 3 1 C2.1875 3.4375 2.1875 3.4375 1 6 C0.01 6.33 -0.98 6.66 -2 7 C-2 5.68 -2 4.36 -2 3 C-1.01 3 -0.02 3 1 3 C0.67 2.01 0.34 1.02 0 0 Z " fill="#C56F73" transform="translate(154,62)"/>
<path d="M0 0 C4.75 0.75 4.75 0.75 7 3 C3.86650268 4.04449911 3.01031744 3.93423645 0 3 C0 2.01 0 1.02 0 0 Z " fill="#B1454B" transform="translate(144,20)"/>
<path d="M0 0 C-0.33 2.31 -0.66 4.62 -1 7 C-1.33 6.34 -1.66 5.68 -2 5 C-2.66 5 -3.32 5 -4 5 C-4 3.68 -4 2.36 -4 1 C-2 0 -2 0 0 0 Z " fill="#A03E46" transform="translate(336,160)"/>
<path d="" fill="#FFFFFF" transform="translate(0,0)"/>
<path d="" fill="#FFFFFF" transform="translate(0,0)"/>
<path d="" fill="#FFFFFF" transform="translate(0,0)"/>
<path d="" fill="#FFFFFF" transform="translate(0,0)"/>
<path d="" fill="#FFFFFF" transform="translate(0,0)"/>
<path d="" fill="#FFFFFF" transform="translate(0,0)"/>
<path d="" fill="#FFFFFF" transform="translate(0,0)"/>
<path d="" fill="#FFFFFF" transform="translate(0,0)"/>
<path d="" fill="#FFFFFF" transform="translate(0,0)"/>
<path d="" fill="#FFFFFF" transform="translate(0,0)"/>
<path d="" fill="#FFFFFF" transform="translate(0,0)"/>
<path d="" fill="#FFFFFF" transform="translate(0,0)"/>
<path d="" fill="#FFFFFF" transform="translate(0,0)"/>
<path d="" fill="#FFFFFF" transform="translate(0,0)"/>
<path d="" fill="#FFFFFF" transform="translate(0,0)"/>
<path d="" fill="#FFFFFF" transform="translate(0,0)"/>
<path d="" fill="#FFFFFF" transform="translate(0,0)"/>
<path d="" fill="#FFFFFF" transform="translate(0,0)"/>
<path d="" fill="#FFFFFF" transform="translate(0,0)"/>
<path d="" fill="#FFFFFF" transform="translate(0,0)"/>
<path d="" fill="#FFFFFF" transform="translate(0,0)"/>
<path d="" fill="#FFFFFF" transform="translate(0,0)"/>
<path d="" fill="#FFFFFF" transform="translate(0,0)"/>
<path d="" fill="#FFFFFF" transform="translate(0,0)"/>
<path d="" fill="#FFFFFF" transform="translate(0,0)"/>
<path d="" fill="#FFFFFF" transform="translate(0,0)"/>
<path d="" fill="#FFFFFF" transform="translate(0,0)"/>
<path d="" fill="#FFFFFF" transform="translate(0,0)"/>
<path d="" fill="#FFFFFF" transform="translate(0,0)"/>
<path d="" fill="#FFFFFF" transform="translate(0,0)"/>
<path d="" fill="#FFFFFF" transform="translate(0,0)"/>
<path d="" fill="#FFFFFF" transform="translate(0,0)"/>
<path d="" fill="#FFFFFF" transform="translate(0,0)"/>
<path d="" fill="#FFFFFF" transform="translate(0,0)"/>
<path d="" fill="#FFFFFF" transform="translate(0,0)"/>
<path d="" fill="#FFFFFF" transform="translate(0,0)"/>
<path d="" fill="#FFFFFF" transform="translate(0,0)"/>
<path d="" fill="#FFFFFF" transform="translate(0,0)"/>
<path d="" fill="#FFFFFF" transform="translate(0,0)"/>
<path d="" fill="#FFFFFF" transform="translate(0,0)"/>
<path d="" fill="#FFFFFF" transform="translate(0,0)"/>
<path d="" fill="#FFFFFF" transform="translate(0,0)"/>
<path d="" fill="#FFFFFF" transform="translate(0,0)"/>
<path d="" fill="#FFFFFF" transform="translate(0,0)"/>
<path d="" fill="#FFFFFF" transform="translate(0,0)"/>
<path d="" fill="#FFFFFF" transform="translate(0,0)"/>
<path d="" fill="#FFFFFF" transform="translate(0,0)"/>
<path d="" fill="#FFFFFF" transform="translate(0,0)"/>
</svg>
